<?xml version="1.0" encoding="utf-8"?><svg xmlns="http://www.w3.org/2000/svg" xmlns:xlink="http://www.w3.org/1999/xlink"><symbol viewBox="0 0 19 18" id="alarm" xmlns="http://www.w3.org/2000/svg"><path d="M8.166 5h2v4h3v2h-5V5z"/><path fill-rule="evenodd" clip-rule="evenodd" d="M.166 9a9 9 0 1118 0 9 9 0 01-18 0zm2 0a7 7 0 1114 0 7 7 0 01-14 0z"/></symbol><symbol viewBox="0 0 18 18" id="profile" xmlns="http://www.w3.org/2000/svg"><path d="M9 8.186c2.003 0 3.627-1.549 3.627-3.46 0-1.91-1.624-3.459-3.627-3.459-2.003 0-3.626 1.549-3.626 3.46 0 1.91 1.623 3.46 3.626 3.46zM9 9c-3.534 0-6.4 2.734-6.4 6.106 0 .899.764 1.628 1.707 1.628h9.387c.942 0 1.706-.73 1.706-1.628C15.4 11.734 12.535 9 9 9z"/></symbol></svg>